Coordinates
version=1
nRows=6
nColumns=107
inDegrees=yes

Units are S.I. units (second, meters, Newtons, ...)
If the header above contains a line with 'inDegrees', this indicates whether rotational values are in degrees (yes) or radians (no).

endheader
time	sternoclavicular_r2	sternoclavicular_r3	unrotscap_r3	unrotscap_r2	acromioclavicular_r2	acromioclavicular_r3	acromioclavicular_r1	unrothum_r1	unrothum_r3	unrothum_r2	elv_angle	shoulder_elv	shoulder1_r2	shoulder_rot	elbow_flexion	pro_sup	deviation	flexion	proximal_distal_r1	proximal_distal_r3	cmc_flexion	cmc_abduction	mp_flexion	ip_flexion	mcp2_flexion	mcp2_abduction	pm2_flexion	md2_flexion	mcp3_flexion	mcp3_abduction	pm3_flexion	md3_flexion	mcp4_flexion	mcp4_abduction	pm4_flexion	md4_flexion	mcp5_flexion	mcp5_abduction	pm5_flexion	md5_flexion	bicpt_tx	bicpt_ty	bicpt_tz	bicpt2_tx	bicpt2_ty	bicpt2_tz	ptpt_tx	ptpt_ty	ptpt_tz	FCUpt_tx	FCUpt_ty	FCUpt_tz	EDCpt_tx	EDCpt_ty	EDCpt_tz	APLpt_tx	APLpt_ty	APLpt_tz	FPLpt_tx	FPLpt_ty	FPLpt_tz	FPLpt2_tx	FPLpt2_ty	FPLpt2_tz	PEC1pt2_tx	PEC1pt2_ty	PEC1pt2_tz	PEC1pt3_tx	PEC1pt3_ty	PEC1pt3_tz	PEC2pt2_tx	PEC2pt2_ty	PEC2pt2_tz	PEC2pt3_tx	PEC2pt3_ty	PEC2pt3_tz	PEC3pt2_tx	PEC3pt2_ty	PEC3pt2_tz	PEC3pt3_tx	PEC3pt3_ty	PEC3pt3_tz	DELT2pt2a_tx	DELT2pt2a_ty	DELT2pt2a_tz	DELT2pt2_tx	DELT2pt2_ty	DELT2pt2_tz	LAT1pt2_tx	LAT1pt2_ty	LAT1pt2_tz	LAT1pt3_tx	LAT1pt3_ty	LAT1pt3_tz	LAT2pt2_tx	LAT2pt2_ty	LAT2pt2_tz	LAT2pt3_tx	LAT2pt3_ty	LAT2pt3_tz	LAT3pt2_tx	LAT3pt2_ty	LAT3pt2_tz	LAT3pt3_tx	LAT3pt3_ty	LAT3pt3_tz
      1.13333333	     -0.32131777	      0.13609504	     -0.13609504	      0.32131777	     -0.06506031	      0.52579455	      0.23634103	     -0.23634103	     -0.52579455	      0.06506031	     99.22187672	     76.07483742	     -1.73174844	    -22.96319289	     28.16893260	     23.32586303	     -0.00936067	     -0.98000391	     -0.01277545	     -0.49000196	     -1.60191148	     -2.89058443	    -34.03249369	    -36.42833461	     15.46803890	      6.68941473	     18.37187509	    -19.82357877	     73.88527126	      4.75931551	     83.70292070	     31.45905180	     61.36902688	     -6.34396703	     76.52905557	     26.18848091	      8.58109099	     -9.22169568	    -15.34626041	      4.95802858	      0.00083174	     -0.03082859	     -0.00482004	      0.01622523	     -0.01785223	     -0.00905511	      0.00582648	     -0.06601446	     -0.00192902	      0.00614441	     -0.18380245	     -0.00016337	     -0.00279910	      0.00074486	      0.00019078	      0.00019840	      0.00007936	      0.00039680	      0.00025395	      0.00076186	      0.00042854	     -0.00006601	      0.00004143	      0.00004971	      0.00249357	      0.00874861	      0.00608599	     -0.00815692	      0.01969495	     -0.01868061	      0.00249357	      0.00874861	      0.00608599	      0.00054943	      0.01825798	     -0.00959389	      0.00394445	      0.00486499	      0.01595911	      0.00000000	      0.00773970	      0.00000000	     -0.00714259	     -0.03300805	     -0.00638151	      0.01542746	     -0.00052464	     -0.00439461	     -0.00088754	      0.01487687	     -0.00608599	      0.00245130	      0.02147003	     -0.01775081	     -0.00595920	      0.01289047	     -0.00545203	     -0.01242557	      0.02721791	     -0.03047222	     -0.02332964	      0.01441197	     -0.00731164	     -0.01546856	      0.03144429	     -0.03807971
      1.16666667	     -0.32141175	      0.13613485	     -0.13613485	      0.32141175	     -0.06507934	      0.52594835	      0.23641016	     -0.23641016	     -0.52594835	      0.06507934	     99.21786749	     76.09708990	     -1.73167846	    -22.96752511	     28.17606956	     23.32676093	     -0.00934536	     -0.98002905	     -0.01275446	     -0.49001453	     -1.60238099	     -2.89037218	    -34.03293668	    -36.42844251	     15.46732564	      6.69019592	     18.37191447	    -19.82348372	     73.88540069	      4.75918211	     83.70300300	     31.45885858	     61.36785657	     -6.34425238	     76.52948680	     26.18845722	      8.58112275	     -9.22164267	    -15.34616286	      4.95808416	      0.00083198	     -0.03082941	     -0.00482017	      0.01622526	     -0.01785417	     -0.00905503	      0.00582642	     -0.06601450	     -0.00192910	      0.00614450	     -0.18380244	     -0.00016338	     -0.00279920	      0.00074489	      0.00019078	      0.00019837	      0.00007935	      0.00039674	      0.00025391	      0.00076174	      0.00042848	     -0.00006673	      0.00004149	      0.00004978	      0.00249430	      0.00875117	      0.00608777	     -0.00815931	      0.01970071	     -0.01868608	      0.00249430	      0.00875117	      0.00608777	      0.00054959	      0.01826332	     -0.00959670	      0.00394529	      0.00486642	      0.01596117	      0.00000000	      0.00774426	      0.00000000	     -0.00714468	     -0.03301771	     -0.00638530	      0.01542978	     -0.00052478	     -0.00439631	     -0.00088780	      0.01488122	     -0.00608777	      0.00245202	      0.02147631	     -0.01775600	     -0.00596094	      0.01289424	     -0.00545363	     -0.01242920	      0.02722587	     -0.03048114	     -0.02333646	      0.01441618	     -0.00731378	     -0.01547309	      0.03145349	     -0.03809085
      1.20000000	     -0.32261026	      0.13664248	     -0.13664248	      0.32261026	     -0.06532201	      0.52790954	      0.23729171	     -0.23729171	     -0.52790954	      0.06532201	     98.85560845	     76.38084591	     -1.72535585	    -21.35595615	     28.23335642	     21.60768530	     -0.00728663	     -0.99954341	     -0.00993206	     -0.49977170	     -1.42654563	     -1.66817796	    -34.77655976	    -37.55040976	     16.20810484	      7.10931037	     18.63615134	    -18.52433994	     74.58398218	      4.44618606	     83.75794792	     30.18656208	     61.42940442	     -6.83088430	     76.96834431	     25.26753962	      9.62015719	     -9.55852292	    -14.13022496	      4.96064642	      0.00083387	     -0.03083597	     -0.00482123	      0.01615310	     -0.01786973	     -0.00919629	      0.00595344	     -0.06593236	     -0.00179062	      0.00598072	     -0.18382964	     -0.00012848	     -0.00259292	      0.00068427	      0.00018679	      0.00018599	      0.00007439	      0.00037197	      0.00023806	      0.00071419	      0.00040173	     -0.00005732	      0.00003679	      0.00004414	      0.00250360	      0.00878380	      0.00611047	     -0.00818973	      0.01977417	     -0.01875576	      0.00250360	      0.00878380	      0.00611047	      0.00055164	      0.01833142	     -0.00963248	      0.00395603	      0.00488456	      0.01598738	      0.00000000	      0.00780253	      0.00000000	     -0.00717132	     -0.03314083	     -0.00643367	      0.01454644	     -0.00047394	     -0.00378324	     -0.00089111	      0.01493671	     -0.00611047	      0.00246116	      0.02155639	     -0.01782221	     -0.00598317	      0.01294232	     -0.00547397	     -0.01247555	      0.02732739	     -0.03059480	     -0.02342348	      0.01446994	     -0.00734105	     -0.01553079	      0.03157078	     -0.03823289
      1.23333333	     -0.32237493	      0.13654280	     -0.13654280	      0.32237493	     -0.06527437	      0.52752446	      0.23711861	     -0.23711861	     -0.52752446	      0.06527437	     98.75334941	     76.32512993	     -1.72357109	    -21.56003569	     28.41981668	     21.07331594	     -0.01511252	     -0.98973017	     -0.02069651	     -0.49486509	     -1.27462486	     -1.42496551	    -34.86291918	    -37.62000081	     16.45357683	      7.25726766	     18.74565493	    -18.45893898	     74.89852435	      4.42324074	     84.12296253	     30.24490862	     61.74504196	     -6.87629251	     77.29310742	     25.35314072	     10.51540984	     -9.51356073	    -13.71520998	      5.05719912	      0.00084004	     -0.03085735	     -0.00482467	      0.01612929	     -0.01792038	     -0.00923935	      0.00599292	     -0.06590683	     -0.00174757	      0.00593000	     -0.18383793	     -0.00011718	     -0.00252879	      0.00066561	      0.00018522	      0.00019229	      0.00007692	      0.00038459	      0.00024614	      0.00073841	      0.00041535	     -0.00004983	      0.00003277	      0.00003932	      0.00250177	      0.00877740	      0.00610602	     -0.00818376	      0.01975974	     -0.01874208	      0.00250177	      0.00877740	      0.00610602	      0.00055124	      0.01831805	     -0.00962546	      0.00395392	      0.00488100	      0.01598225	      0.00000000	      0.00779107	      0.00000000	     -0.00716609	     -0.03311665	     -0.00642416	      0.01466021	     -0.00048033	     -0.00385873	     -0.00089046	      0.01492582	     -0.00610602	      0.00245937	      0.02154067	     -0.01780921	     -0.00597881	      0.01293288	     -0.00546997	     -0.01246645	      0.02730746	     -0.03057248	     -0.02340639	      0.01445938	     -0.00733570	     -0.01551946	      0.03154775	     -0.03820500
      1.26666667	     -0.32155951	      0.13619743	     -0.13619743	      0.32155951	     -0.06510926	      0.52619014	      0.23651884	     -0.23651884	     -0.52619014	      0.06510926	     99.00014990	     76.13207249	     -1.72787858	    -22.40327006	     28.22889269	     20.01500228	     -0.01265551	     -0.96644508	     -0.01730637	     -0.48322254	     -0.56008750	      0.76641859	    -35.35842068	    -38.15791800	     17.58495866	      7.70163500	     19.53603455	    -18.28237330	     76.14481265	      4.35818107	     84.98915069	     31.68780424	     62.84716276	     -7.37896309	     78.12870347	     26.20322693	     12.40813501	     -9.10278966	    -12.53843395	      5.04539351	      0.00083372	     -0.03083546	     -0.00482115	      0.01608021	     -0.01786852	     -0.00932346	      0.00607112	     -0.06585627	     -0.00166232	      0.00582981	     -0.18385410	     -0.00009416	     -0.00240179	      0.00062891	      0.00018166	      0.00020662	      0.00008265	      0.00041323	      0.00026447	      0.00079341	      0.00044629	     -0.00001875	      0.00001416	      0.00001699	      0.00249544	      0.00875520	      0.00609057	     -0.00816306	      0.01970976	     -0.01869467	      0.00249544	      0.00875520	      0.00609057	      0.00054984	      0.01827171	     -0.00960111	      0.00394662	      0.00486865	      0.01596441	      0.00000000	      0.00775143	      0.00000000	     -0.00714796	     -0.03303289	     -0.00639125	      0.01512450	     -0.00050687	     -0.00417718	     -0.00088821	      0.01488806	     -0.00609057	      0.00245315	      0.02148618	     -0.01776417	     -0.00596368	      0.01290017	     -0.00545614	     -0.01243492	      0.02723839	     -0.03049515	     -0.02334719	      0.01442281	     -0.00731714	     -0.01548020	      0.03146795	     -0.03810836
      1.30000000	     -0.32049702	      0.13574741	     -0.13574741	      0.32049702	     -0.06489413	      0.52445151	      0.23573734	     -0.23573734	     -0.52445151	      0.06489413	     99.31854112	     75.88051861	     -1.73343555	    -23.59650425	     27.83701835	     17.75282620	     -0.02897814	     -0.93883496	     -0.04001468	     -0.46941748	      0.07298742	      1.09259103	    -35.32779091	    -38.19224072	     18.81947625	      6.93592148	     20.03044390	    -18.08295207	     76.81999175	      4.79128924	     85.47563938	     31.88641369	     63.46766244	     -7.35682458	     78.70033863	     26.30870100	     14.07030914	     -8.76319306	    -11.67028700	      5.18058008	      0.00082076	     -0.03079055	     -0.00481391	      0.01596670	     -0.01776206	     -0.00949798	      0.00623827	     -0.06574819	     -0.00148009	      0.00561680	     -0.18388759	     -0.00004213	     -0.00213033	      0.00055163	      0.00017201	      0.00022242	      0.00008897	      0.00044484	      0.00028470	      0.00085409	      0.00048043	      0.00000215	     -0.00000182	     -0.00000219	      0.00248720	      0.00872627	      0.00607045	     -0.00813608	      0.01964464	     -0.01863290	      0.00248720	      0.00872627	      0.00607045	      0.00054803	      0.01821134	     -0.00956938	      0.00393708	      0.00485257	      0.01594105	      0.00000000	      0.00769992	      0.00000000	     -0.00712434	     -0.03292374	     -0.00634849	      0.01576514	     -0.00054488	     -0.00464601	     -0.00088527	      0.01483887	     -0.00607045	      0.00244504	      0.02141519	     -0.01770547	     -0.00594398	      0.01285754	     -0.00543811	     -0.01239383	      0.02714839	     -0.03039439	     -0.02327005	      0.01437515	     -0.00729297	     -0.01542905	      0.03136397	     -0.03798245
